<?xml version="1.0" encoding="UTF-8" standalone="no"?>
<svg
   xmlns:osb="http://www.openswatchbook.org/uri/2009/osb"
   xmlns:dc="http://purl.org/dc/elements/1.1/"
   xmlns:cc="http://creativecommons.org/ns#"
   xmlns:rdf="http://www.w3.org/1999/02/22-rdf-syntax-ns#"
   xmlns:svg="http://www.w3.org/2000/svg"
   xmlns="http://www.w3.org/2000/svg"
   xmlns:sodipodi="http://sodipodi.sourceforge.net/DTD/sodipodi-0.dtd"
   xmlns:inkscape="http://www.inkscape.org/namespaces/inkscape"
   width="300mm"
   height="300mm"
   viewBox="0 0 300 300"
   version="1.1"
   id="svg8"
   inkscape:version="1.0 (4035a4fb49, 2020-05-01)"
   sodipodi:docname="matrix.svg">
  <defs
     id="defs2">
    <linearGradient
       osb:paint="gradient"
       id="linearGradient3203"
       inkscape:collect="always">
      <stop
         id="stop3199"
         offset="0"
         style="stop-color:#f8ffff;stop-opacity:1;" />
      <stop
         id="stop3201"
         offset="1"
         style="stop-color:#f8ffff;stop-opacity:0;" />
    </linearGradient>
  </defs>
  <sodipodi:namedview
     inkscape:pagecheckerboard="false"
     id="base"
     pagecolor="#000000"
     bordercolor="#666666"
     borderopacity="1.0"
     inkscape:pageopacity="0"
     inkscape:pageshadow="2"
     inkscape:zoom="0.49497475"
     inkscape:cx="-116.20886"
     inkscape:cy="417.78253"
     inkscape:document-units="mm"
     inkscape:current-layer="layer1"
     inkscape:document-rotation="0"
     showgrid="false"
     inkscape:window-width="1920"
     inkscape:window-height="1080"
     inkscape:window-x="0"
     inkscape:window-y="391"
     inkscape:window-maximized="1" />
  <metadata
     id="metadata5">
    <rdf:RDF>
      <cc:Work
         rdf:about="">
        <dc:format>image/svg+xml</dc:format>
        <dc:type
           rdf:resource="http://purl.org/dc/dcmitype/StillImage" />
        <dc:title></dc:title>
      </cc:Work>
    </rdf:RDF>
  </metadata>
  <g
     inkscape:label="Calque 1"
     inkscape:groupmode="layer"
     id="layer1">
    <path
       style="opacity:1;mix-blend-mode:normal;fill:#000000;stroke:#fdffff;stroke-width:0.528404;stroke-opacity:1"
       d="m 46.888805,145.32032 v -44.91435 h 4.227221 c 3.34062,0 4.227241,0.16077 4.227241,0.76624 0,0.56217 -0.809193,0.80844 -3.038316,0.92471 l -3.038337,0.15837 -0.135205,42.93282 -0.135205,42.93286 h 3.173542 c 2.821249,0 3.173521,0.11723 3.173521,1.05682 0,0.96872 -0.352272,1.05679 -4.227221,1.05679 h -4.227241 z m 202.907235,43.85757 c 0,-0.93951 0.35228,-1.05682 3.17355,-1.05682 h 3.17354 l -0.13521,-42.93286 -0.1352,-42.93282 -3.03832,-0.15837 c -2.22914,-0.11623 -3.03834,-0.36254 -3.03834,-0.92471 0,-0.60553 0.88663,-0.76624 4.22725,-0.76624 h 4.22724 v 44.91425 44.91436 h -4.22724 c -3.87497,0 -4.22725,-0.0881 -4.22725,-1.05679 z M 122.13415,161.22242 c -3.21419,-1.45969 -4.64299,-3.79596 -4.87072,-7.96421 -0.16076,-2.94247 -0.004,-3.7169 1.06678,-5.29586 1.92113,-2.83089 4.81881,-4.1321 11.33149,-5.08844 7.29363,-1.07103 8.64105,-1.72161 8.64105,-4.17222 0,-2.83932 -1.46523,-3.94946 -5.21278,-3.94946 -3.45968,0 -5.68479,1.23268 -5.98044,3.31306 -0.15578,1.09538 -0.47458,1.18921 -4.52681,1.33186 -4.19984,0.14779 -4.35933,0.11044 -4.35933,-1.02209 0,-2.05687 2.08393,-5.57341 4.1137,-6.94167 3.13043,-2.11022 5.75089,-2.71932 11.56403,-2.68798 4.7229,0.0256 5.72468,0.20063 8.27039,1.44613 4.80203,2.3494 4.8056,2.36118 5.14034,16.9782 0.15977,6.97493 0.48238,13.09782 0.71702,13.6064 0.38848,0.84201 0.0208,0.92471 -4.11126,0.92471 -4.39976,0 -4.548,-0.0401 -4.86946,-1.32101 -0.37991,-1.51364 -0.86583,-1.65667 -1.80082,-0.53006 -1.89315,2.28111 -11.24295,3.13028 -15.11318,1.37264 z m 13.01547,-5.60715 c 2.07992,-1.07557 3.15313,-3.33095 3.15313,-6.62642 0,-2.24736 -0.14399,-2.66955 -0.82138,-2.40958 -0.45175,0.17335 -2.34106,0.55795 -4.19846,0.85466 -5.83645,0.93238 -7.13346,1.7936 -7.13346,4.73655 0,2.00748 0.75551,3.39426 2.11361,3.87962 1.61985,0.57893 5.38604,0.34111 6.88656,-0.43483 z M 64.854544,145.60589 V 129.4682 h 4.227251 4.227221 v 1.94827 1.94828 l 1.453123,-1.35955 c 4.757716,-4.45136 12.774689,-4.52687 16.378966,-0.15418 l 1.52075,1.84492 1.55218,-1.6326 c 2.48629,-2.61511 4.30782,-3.33078 8.421425,-3.30875 5.79134,0.0312 9.1232,2.20073 10.75147,7.00129 0.38985,1.1494 0.60922,6.14396 0.60922,13.87061 v 12.07444 h -4.49144 -4.49144 V 150.5782 c 0,-13.95663 -0.29496,-14.76907 -5.361985,-14.76907 -5.1426,0 -5.7345,1.57992 -5.7345,15.30675 v 10.58505 h -4.491442 -4.49142 V 150.9475 c 0,-13.95748 -0.40883,-15.13837 -5.240978,-15.13837 -1.617207,0 -2.561584,0.37637 -3.865663,1.54067 l -1.72565,1.54068 -0.264199,11.27314 -0.264198,11.27311 -4.359351,0.15338 -4.35934,0.15338 z m 94.055966,15.16943 c -3.31393,-1.65549 -3.69706,-3.21566 -3.698,-15.05869 l -8.2e-4,-10.43598 h -2.64203 -2.642 v -2.90623 -2.90622 h 2.642 2.64203 v -4.75564 -4.75563 h 4.49144 4.49144 v 4.75563 4.75564 h 3.17043 3.17042 v 2.90622 2.90623 h -3.17042 -3.17043 v 9.14139 c 0,6.40544 0.18973,9.33116 0.63409,9.77548 0.34873,0.34873 1.77543,0.63408 3.17042,0.63408 h 2.53634 v 3.43462 3.43463 l -4.88775,-0.001 c -3.59459,-5.2e-4 -5.37702,-0.24525 -6.73716,-0.9247 z m 15.85213,-15.1908 V 129.4682 h 4.22724 4.22724 v 2.61686 2.61684 l 2.53958,-2.53957 c 1.95568,-1.95567 3.17198,-2.69129 5.29019,-3.19944 4.06569,-0.97533 4.32352,-0.74137 4.32352,3.92335 v 3.97962 h -2.78237 c -3.75763,0 -6.15959,1.33258 -7.65361,4.2462 -1.09768,2.14067 -1.18891,3.0195 -1.18891,11.45369 v 9.1351 h -4.49144 -4.49144 z m 24.30661,0 V 129.4682 h 4.49142 4.49144 v 16.11632 16.11633 h -4.49144 -4.49142 z m 13.01205,15.45582 c 0.21601,-0.36327 2.72675,-4.06569 5.57943,-8.22761 2.85268,-4.16189 5.1867,-7.8045 5.1867,-8.09468 0,-0.29016 -2.08058,-3.52681 -4.62353,-7.19256 -2.54295,-3.66575 -4.8137,-6.97826 -5.0461,-7.36113 -0.33795,-0.55678 0.58453,-0.69616 4.60743,-0.69616 h 5.03 l 2.67422,3.96304 c 1.47082,2.17965 2.77864,3.96302 2.90623,3.96302 0.12762,0 1.43539,-1.78337 2.90623,-3.96302 l 2.67422,-3.96304 h 4.73954 c 2.60674,0 4.73952,0.11104 4.73952,0.24671 0,0.1356 -2.25892,3.45413 -5.01983,7.37433 -2.76092,3.92022 -5.01984,7.26072 -5.01984,7.42337 0,0.16256 2.44787,3.7993 5.43971,8.08148 2.99184,4.28216 5.62147,8.08298 5.84363,8.44625 0.31221,0.51055 -0.74507,0.66051 -4.65684,0.66051 h -5.06076 l -3.20747,-4.88773 c -1.76412,-2.68826 -3.29447,-4.97596 -3.40076,-5.08376 -0.10624,-0.10785 -1.68431,2.09168 -3.5067,4.88774 l -3.31344,5.08375 h -4.93216 c -3.80291,0 -4.84223,-0.15118 -4.53943,-0.66051 z m -12.65979,-36.68005 c -0.19373,-0.19372 -0.35226,-1.85822 -0.35226,-3.69882 v -3.34657 h 4.49142 4.49144 v 3.69884 3.69882 h -4.13917 c -2.27653,0 -4.29767,-0.15857 -4.49143,-0.35227 z"
       id="path24" />
  </g>
</svg>
