<?xml version="1.0" encoding="UTF-8" standalone="no"?>
<svg
   xmlns:dc="http://purl.org/dc/elements/1.1/"
   xmlns:cc="http://creativecommons.org/ns#"
   xmlns:rdf="http://www.w3.org/1999/02/22-rdf-syntax-ns#"
   xmlns:svg="http://www.w3.org/2000/svg"
   xmlns="http://www.w3.org/2000/svg"
   xmlns:sodipodi="http://sodipodi.sourceforge.net/DTD/sodipodi-0.dtd"
   xmlns:inkscape="http://www.inkscape.org/namespaces/inkscape"
   sodipodi:docname="cover.svg"
   inkscape:version="1.0 (4035a4fb49, 2020-05-01)"
   id="svg8"
   version="1.1"
   viewBox="0 0 300 300"
   height="300mm"
   width="300mm">
  <defs
     id="defs2">
    <radialGradient
       id="Gradient-3"
       cx="101.925"
       cy="809.00787"
       r="1.0896"
       gradientTransform="matrix(64.994236,0,0,-64.994117,-6602.0263,52645.395)"
       gradientUnits="userSpaceOnUse">
      <stop
         offset="0"
         style="stop-color:#0099FF"
         id="stop188-6" />
      <stop
         offset="0.6098"
         style="stop-color:#A033FF"
         id="stop190-7" />
      <stop
         offset="0.9348"
         style="stop-color:#FF5280"
         id="stop192-5" />
      <stop
         offset="1"
         style="stop-color:#FF7061"
         id="stop194-3" />
    </radialGradient>
    <linearGradient
       gradientUnits="userSpaceOnUse"
       id="a"
       x1="160.08"
       x2="100.08"
       y1="40.079999"
       y2="180">
      <stop
         offset="0"
         stop-color="#37aee2"
         id="stop16" />
      <stop
         offset="1"
         stop-color="#1e96c8"
         id="stop18" />
    </linearGradient>
    <linearGradient
       gradientUnits="userSpaceOnUse"
       gradientTransform="scale(1.0919068,0.9158291)"
       id="b"
       x1="123.67709"
       x2="146.50331"
       y1="131.03925"
       y2="174.66004">
      <stop
         offset="0"
         stop-color="#eff7fc"
         id="stop21" />
      <stop
         offset="1"
         stop-color="#fff"
         id="stop23" />
    </linearGradient>
  </defs>
  <sodipodi:namedview
     inkscape:window-maximized="1"
     inkscape:window-y="391"
     inkscape:window-x="1920"
     inkscape:window-height="1080"
     inkscape:window-width="1920"
     showgrid="false"
     inkscape:document-rotation="0"
     inkscape:current-layer="layer1"
     inkscape:document-units="mm"
     inkscape:cy="520.68437"
     inkscape:cx="-168.84091"
     inkscape:zoom="0.49497475"
     inkscape:pageshadow="2"
     inkscape:pageopacity="0"
     borderopacity="1.0"
     bordercolor="#666666"
     pagecolor="#000000"
     id="base" />
  <metadata
     id="metadata5">
    <rdf:RDF>
      <cc:Work
         rdf:about="">
        <dc:format>image/svg+xml</dc:format>
        <dc:type
           rdf:resource="http://purl.org/dc/dcmitype/StillImage" />
        <dc:title />
      </cc:Work>
    </rdf:RDF>
  </metadata>
  <g
     id="layer1"
     inkscape:groupmode="layer"
     inkscape:label="Calque 1">
    <path
       id="path24"
       d="M 139.75966,142.49999 V 110 h 3.05618 c 2.41518,0 3.05618,0.11633 3.05618,0.55445 0,0.40679 -0.58502,0.58499 -2.19662,0.66912 l -2.19664,0.1146 -0.0977,31.06616 -0.0977,31.06619 h 2.29439 c 2.0397,0 2.29437,0.0848 2.29437,0.76471 0,0.70097 -0.25467,0.7647 -3.05617,0.7647 h -3.05619 z m 146.69683,31.73532 c 0,-0.67984 0.25468,-0.76472 2.29439,-0.76472 h 2.29439 l -0.0977,-31.06619 -0.0977,-31.06616 -2.19663,-0.11459 c -1.61161,-0.0841 -2.19664,-0.26234 -2.19664,-0.66913 0,-0.43816 0.64101,-0.55445 3.05619,-0.55445 h 3.05619 V 142.49999 175 h -3.05619 c -2.80151,0 -3.05619,-0.0638 -3.05619,-0.76469 z m -92.29634,-20.22857 c -2.32377,-1.05622 -3.35676,-2.74675 -3.5214,-5.7629 -0.11623,-2.12916 -0.003,-2.68954 0.77125,-3.83208 1.38893,-2.04842 3.48387,-2.98998 8.19238,-3.68199 5.27311,-0.77499 6.24726,-1.24575 6.24726,-3.01901 0,-2.05453 -1.05932,-2.85782 -3.7687,-2.85782 -2.50127,0 -4.10996,0.89196 -4.32371,2.39732 -0.11263,0.79261 -0.34311,0.86051 -3.27277,0.96373 -3.03638,0.10695 -3.15169,0.0799 -3.15169,-0.73958 0,-1.48835 1.50663,-4.03291 2.9741,-5.02299 2.26323,-1.52696 4.15776,-1.9677 8.3605,-1.94502 3.41454,0.0185 4.13881,0.14517 5.97929,1.04642 3.47175,1.70002 3.47432,1.70855 3.71634,12.28541 0.1155,5.04706 0.34875,9.47758 0.51838,9.84559 0.28086,0.60927 0.0151,0.66911 -2.97233,0.66911 -3.18092,0 -3.28809,-0.029 -3.5205,-0.95588 -0.27467,-1.09526 -0.62598,-1.19876 -1.30195,-0.38355 -1.3687,1.65061 -8.12837,2.26508 -10.92645,0.99324 z m 9.40986,-4.05732 c 1.50373,-0.77829 2.27963,-2.41027 2.27963,-4.79488 0,-1.62618 -0.10409,-1.93169 -0.59383,-1.74357 -0.32661,0.12544 -1.69253,0.40374 -3.03539,0.61843 -4.2196,0.67467 -5.15731,1.29785 -5.15731,3.42737 0,1.45261 0.54621,2.45608 1.52809,2.80728 1.17111,0.41892 3.89397,0.24684 4.97881,-0.31463 z m -50.82157,-7.24278 v -11.67723 h 3.05619 3.05618 v 1.40977 1.40977 l 1.05057,-0.98376 c 3.43971,-3.22101 9.23578,-3.27565 11.84158,-0.11158 l 1.09947,1.33499 1.12219,-1.18135 c 1.79751,-1.89229 3.11444,-2.41015 6.08847,-2.3942 4.18699,0.0225 6.59584,1.59244 7.77304,5.06612 0.28185,0.83171 0.44045,4.44577 0.44045,10.03676 v 8.73706 h -3.2472 -3.24719 v -8.04839 c 0,-10.09901 -0.21325,-10.68689 -3.87659,-10.68689 -3.71796,0 -4.14589,1.14323 -4.14589,11.07595 v 7.65933 h -3.2472 -3.24718 v -7.78117 c 0,-10.09962 -0.29558,-10.95411 -3.7891,-10.95411 -1.1692,0 -1.85196,0.27234 -2.79477,1.11482 l -1.24761,1.11484 -0.19101,8.15723 -0.19101,8.15722 -3.15169,0.11099 -3.1517,0.11098 z m 68.00009,10.97658 c -2.39589,-1.1979 -2.67288,-2.32684 -2.67356,-10.89645 l -5.9e-4,-7.55147 h -1.91013 -1.91009 v -2.10295 -2.10294 h 1.91009 1.91013 v -3.44117 -3.44118 h 3.2472 3.2472 v 3.44118 3.44117 h 2.29214 2.29213 v 2.10294 2.10295 h -2.29213 -2.29214 v 6.6147 c 0,4.63497 0.13717,6.75202 0.45843,7.07353 0.25212,0.25234 1.28359,0.45882 2.29214,0.45882 h 1.8337 v 2.48529 2.48529 l -3.53372,-7.1e-4 c -2.5988,-3.8e-4 -3.88745,-0.17747 -4.8708,-0.66912 z m 11.4607,-10.99205 v -11.66176 h 3.05618 3.05619 v 1.89356 1.89354 l 1.83605,-1.83763 c 1.41391,-1.41512 2.29326,-1.94741 3.82468,-2.31511 2.93939,-0.70575 3.12579,-0.53646 3.12579,2.83893 v 2.87966 h -2.01158 c -2.71667,0 -4.45323,0.96424 -5.53337,3.07254 -0.79359,1.54899 -0.85955,2.18491 -0.85955,8.28789 v 6.61014 h -3.24719 -3.2472 z m 17.57306,0 v -11.66176 h 3.24718 3.2472 v 11.66176 11.66176 h -3.2472 -3.24718 z m 9.40738,11.18382 c 0.15617,-0.26286 1.97138,-2.94193 4.03379,-5.9535 2.06241,-3.01153 3.74986,-5.64732 3.74986,-5.8573 0,-0.20995 -1.50421,-2.552 -3.3427,-5.20453 -1.83849,-2.65253 -3.48019,-5.04946 -3.6482,-5.32651 -0.24433,-0.40288 0.4226,-0.50374 3.33106,-0.50374 h 3.63656 l 1.93339,2.86766 c 1.06337,1.57719 2.00889,2.86764 2.10113,2.86764 0.0923,0 1.03775,-1.29045 2.10113,-2.86764 l 1.9334,-2.86766 h 3.42656 c 1.88461,0 3.42656,0.0803 3.42656,0.17852 0,0.0981 -1.63314,2.49941 -3.62922,5.33607 -1.99606,2.83666 -3.62922,5.25384 -3.62922,5.37154 0,0.11763 1.76976,2.74916 3.93278,5.84775 2.16302,3.09857 4.06418,5.84884 4.2248,6.1117 0.22571,0.36943 -0.53867,0.47794 -3.36678,0.47794 h -3.6588 l -2.31892,-3.53675 c -1.27541,-1.94522 -2.38182,-3.60061 -2.45866,-3.67861 -0.0768,-0.078 -1.21772,1.51355 -2.53526,3.53677 l -2.39553,3.67859 h -3.56583 c -2.74941,0 -3.50081,-0.10939 -3.2819,-0.47794 z m -9.15271,-26.54166 c -0.14006,-0.14018 -0.25467,-1.34461 -0.25467,-2.67646 v -2.42158 h 3.24718 3.2472 v 2.67648 2.67647 h -2.99252 c -1.64586,0 -3.10711,-0.11475 -3.24719,-0.25491 z"
       style="fill:#000000;stroke-width:0.582;stroke:#ffffff;stroke-opacity:1;stroke-miterlimit:4;stroke-dasharray:none" />
    <path
       style="stroke-width:0.81;stroke:#ffffff;stroke-opacity:1;stroke-miterlimit:4;stroke-dasharray:none"
       id="path283-2"
       d="m 110.92033,130.55583 c -0.26125,0.17082 -0.4823,0.34163 -0.4823,0.39187 0,0.0402 0.2311,0.57274 0.50239,1.17562 0.53255,1.15551 0.56269,1.25599 0.40193,1.15551 -0.0602,-0.0402 -0.10049,0.11053 -0.10049,0.37178 0,0.30144 0.15072,0.74355 0.49235,1.4871 0.28134,0.58278 0.46221,1.06509 0.41197,1.08517 -0.0402,0.0201 -0.5225,-0.0804 -1.06508,-0.22104 -5.36563,-1.35648 -10.6609,-1.58759 -16.368151,-0.71341 -1.959357,0.30144 -4.883318,0.93445 -5.03404,1.09523 -0.09043,0.0804 -0.854074,8.57092 -0.844024,9.37475 0,0.0704 0.100479,0.13063 0.2311,0.13063 0.200958,0 0.231109,0.0402 0.190916,0.29139 -0.02009,0.16077 0.05025,0.49235 0.160764,0.74354 0.331587,0.74356 0.562689,0.7737 3.104819,0.38184 5.003897,-0.75361 7.264691,-0.94451 10.982446,-0.94451 3.04453,0 4.56177,0.12057 6.24983,0.50239 0.40192,0.0904 0.83398,0.16078 0.95456,0.17081 0.18087,0.0101 0.19091,0.0402 0.10049,0.21101 -0.17082,0.32154 -1.73831,1.81869 -3.21536,3.06464 l -1.36652,1.14547 0.20096,0.36173 c 0.11053,0.1909 0.26124,0.43206 0.33157,0.53253 0.15073,0.19091 0.12058,0.20097 1.21581,-0.27129 0.33159,-0.14067 0.51245,-0.20096 0.40192,-0.13063 -0.39187,0.24116 -1.0249,0.95457 -1.09523,1.22586 -0.0503,0.18087 -0.0101,0.35168 0.10048,0.5225 0.29139,0.45216 0.76364,0.31149 4.51153,-1.34644 3.55699,-1.57752 5.94841,-2.58232 8.29964,-3.49669 2.40146,-0.93446 2.7029,-1.17561 2.7029,-2.12012 0,-0.31149 -0.0402,-0.64306 -0.10048,-0.74356 -0.0704,-0.13061 -0.0603,-0.1909 0.0503,-0.24114 0.23111,-0.0804 0.19092,-0.34163 -0.25119,-1.68806 -0.88423,-2.69286 -2.20051,-4.83308 -4.61202,-7.46565 -0.76366,-0.83398 -2.50195,-2.51198 -5.43596,-5.26513 l -1.15551,-1.08518 z" />
    <path
       style="stroke-width:0.507792"
       d="m 34.699994,110.94952 0.73125,2.95524 a 29.371897,29.369599 0 0 0 -8.165631,3.37668 l -1.56407,-2.60994 a 32.378149,32.375616 0 0 1 8.998451,-3.72198 z m 15.600012,0 -0.731251,2.95524 a 29.371897,29.369599 0 0 1 8.165631,3.37668 l 1.574223,-2.60994 a 32.378149,32.375616 0 0 0 -9.008603,-3.72198 z m -35.628159,14.75081 a 32.378149,32.375616 0 0 0 -3.722257,8.99773 l 2.955461,0.73119 a 29.371897,29.369599 0 0 1 3.376958,-8.16499 z m -1.624988,16.79713 a 29.402366,29.400066 0 0 1 0.33006,-4.41255 l -3.011312,-0.45699 a 32.616821,32.614269 0 0 0 0,9.73909 l 3.011312,-0.457 a 29.402366,29.400066 0 0 1 -0.33006,-4.41255 z m 46.251597,27.82597 -1.56407,-2.60995 a 29.371897,29.369599 0 0 1 -8.155478,3.37669 l 0.731251,2.95525 a 32.378149,32.375616 0 0 0 8.988297,-3.72199 z m 12.654685,-27.82597 a 29.402366,29.400066 0 0 1 -0.33008,4.41255 l 3.011332,0.457 a 32.616821,32.614269 0 0 0 0,-9.73909 l -3.011332,0.45699 a 29.402366,29.400066 0 0 1 0.33008,4.41255 z m 2.097268,7.79939 -2.955461,-0.73119 a 29.371897,29.369599 0 0 1 -3.376957,8.16499 l 2.610161,1.5741 a 32.378149,32.375616 0 0 0 3.722257,-9.0079 z m -27.137514,21.32648 a 29.66135,29.659029 0 0 1 -8.825791,0 l -0.457041,3.01109 a 32.616821,32.614269 0 0 0 9.739854,0 z m 19.296877,-11.65338 a 29.559788,29.557476 0 0 1 -6.241003,6.23544 l 1.807801,2.45255 a 32.550807,32.54826 0 0 0 6.885943,-6.8651 z m -6.241003,-41.18041 a 29.559788,29.557476 0 0 1 6.241003,6.24053 l 2.452741,-1.82798 a 32.550807,32.54826 0 0 0 -6.865617,-6.8651 z m -41.178561,6.24053 a 29.559788,29.557476 0 0 1 6.241022,-6.24053 l -1.828126,-2.45255 a 32.550807,32.54826 0 0 0 -6.865618,6.8651 z m 51.537944,0.67026 -2.610161,1.56393 a 29.371897,29.369599 0 0 1 3.376957,8.15484 l 2.955461,-0.73119 a 32.378149,32.375616 0 0 0 -3.722257,-8.98758 z M 38.087104,113.37667 a 29.66135,29.659029 0 0 1 8.825791,0 l 0.457022,-3.01109 a 32.616821,32.614269 0 0 0 -9.739854,0 z m -17.732826,56.08862 -6.291807,1.46747 1.467587,-6.29131 -2.965633,-0.69566 -1.467568,6.29132 a 3.0468773,3.0466389 0 0 0 3.661319,3.66105 l 6.286721,-1.44208 z m -7.155085,-8.23608 2.965633,0.69058 1.015614,-4.36178 a 29.326193,29.323899 0 0 1 -3.275389,-7.99235 l -2.955461,0.73119 a 32.256274,32.25375 0 0 0 2.996092,7.72325 z m 14.218754,6.60106 -4.362111,1.01554 0.690639,2.9654 3.209364,-0.74643 a 32.256274,32.25375 0 0 0 7.723849,2.99586 l 0.73125,-2.95523 a 29.326193,29.323899 0 0 1 -7.972665,-3.29546 z M 42.5,116.09326 a 26.406269,26.404204 0 0 0 -22.343774,40.45428 l -2.539051,10.83081 10.831644,-2.53887 A 26.406269,26.404204 0 1 0 42.5,116.09326 Z"
       fill="#3a76f0"
       id="path850" />
  </g>
</svg>
